<svg width="68" height="14" viewBox="0 0 68 14" fill="none" xmlns="http://www.w3.org/2000/svg">
<path d="M1.54973 9.03532L3.89952 11.3851C3.90097 11.3866 3.90253 11.3879 3.90399 11.3894C3.90544 11.3908 3.90717 11.3928 3.90885 11.3944C4.59455 12.0801 5.49855 12.5042 6.46414 12.5934C7.42973 12.6826 8.39605 12.4312 9.19579 11.8828C9.99553 12.4312 10.9618 12.6826 11.9274 12.5934C12.8931 12.5042 13.797 12.0801 14.4827 11.3944L16.8325 9.04471C17.5646 8.31241 17.9968 7.33308 18.0444 6.2987C18.092 5.26431 17.7516 4.24941 17.0898 3.45297C16.428 2.65658 15.4927 2.136 14.467 1.99338C13.4414 1.85075 12.3995 2.0963 11.5455 2.68193C10.8541 2.20776 10.0353 1.9539 9.19696 1.95362C8.35853 1.95339 7.53969 2.20681 6.84795 2.68059C5.995 2.09133 4.95251 1.84238 3.92532 1.98254C2.89813 2.12277 1.96052 2.64195 1.29659 3.43822C0.63272 4.2345 0.290622 5.25024 0.337419 6.28586C0.384271 7.32153 0.816668 8.30224 1.54973 9.03532ZM12.8215 3.85861C13.352 3.60525 13.9549 3.54762 14.5238 3.69583C15.0926 3.84398 15.5908 4.18854 15.9302 4.66852C16.2696 5.14849 16.4284 5.73295 16.3786 6.3187C16.3287 6.90444 16.0734 7.45371 15.6578 7.86942L13.3081 10.2192C12.9433 10.5834 12.4748 10.8259 11.9668 10.9131C11.4588 11.0004 10.9362 10.9283 10.4709 10.7067L12.133 9.04471C12.7704 8.4106 13.1831 7.58551 13.3081 6.69514C13.3356 6.50047 13.3495 6.30412 13.3496 6.1075C13.3513 5.33021 13.1333 4.56828 12.7208 3.90943C12.7541 3.89167 12.7877 3.87481 12.8215 3.85878L12.8215 3.85861ZM7.43348 4.34501C7.90139 3.88017 8.53449 3.61983 9.19406 3.62089C9.85363 3.622 10.4858 3.88452 10.9522 4.35088C11.4186 4.81728 11.6811 5.44949 11.6822 6.10906C11.6833 6.76863 11.4229 7.40171 10.9581 7.86964L9.19579 9.63196L7.43348 7.86964C6.9669 7.40189 6.70488 6.76818 6.70488 6.10749C6.70488 5.44686 6.9669 4.81315 7.43348 4.3454L7.43348 4.34501ZM2.72462 4.33569C3.09107 3.97019 3.56206 3.72766 4.07241 3.6416C4.58277 3.55555 5.10725 3.63027 5.57327 3.85543C5.60677 3.87157 5.63994 3.88849 5.67272 3.90619C5.25898 4.56576 5.04029 5.32892 5.04197 6.10749C5.04214 6.30412 5.05599 6.50047 5.08352 6.69514C5.2085 7.5855 5.62118 8.4106 6.25858 9.04471L7.91055 10.6966L7.91987 10.7059C7.45475 10.9275 6.93245 10.9996 6.42466 10.9126C5.91687 10.8255 5.44851 10.5834 5.08374 10.2196C5.08207 10.2179 5.0805 10.2161 5.07888 10.2145C5.07726 10.2128 5.07587 10.2117 5.07441 10.2102L2.73563 7.87143L2.72446 7.86026C2.2571 7.39285 1.99452 6.75891 1.99452 6.09795C1.99452 5.43698 2.2571 4.80304 2.72446 4.33563L2.72462 4.33569Z" fill="white"/>
<path d="M23.818 10.7777H25.3545L26.7399 5.74125H26.7712L28.1514 10.7777H29.6878L31.6826 3.26208H30.0524L28.8597 8.6475H28.8285L27.443 3.26208H26.0628L24.6774 8.6475H24.6462L23.4587 3.26208H21.8285L23.818 10.7777ZM33.3545 10.8663C34.0889 10.8663 34.6826 10.5173 35.0003 9.94438H35.0316V10.7777H36.5524V6.94958C36.5524 5.82458 35.6201 5.07979 34.1774 5.07979C32.7035 5.07979 31.818 5.81938 31.7347 6.85063L31.7295 6.91313H33.1201L33.1305 6.86625C33.2035 6.50688 33.5472 6.24125 34.1149 6.24125C34.7087 6.24125 35.0316 6.54854 35.0316 7.04333V7.38708L33.6514 7.47042C32.266 7.55896 31.4795 8.15271 31.4795 9.16833V9.17875C31.4795 10.1631 32.2347 10.8663 33.3545 10.8663ZM32.9847 9.10063V9.09021C32.9847 8.69438 33.292 8.44438 33.8805 8.40792L35.0316 8.335V8.73604C35.0316 9.31938 34.5316 9.75688 33.8493 9.75688C33.3232 9.75688 32.9847 9.51208 32.9847 9.10063ZM37.5889 10.7777H39.1097V8.92875L39.5003 8.49646L41.0993 10.7777H42.8545L40.641 7.59542L42.7503 5.19438H41.0264L39.141 7.42875H39.1097V3.26208H37.5889V10.7777ZM44.9066 10.8663C45.641 10.8663 46.2347 10.5173 46.5524 9.94438H46.5837V10.7777H48.1045V6.94958C48.1045 5.82458 47.1722 5.07979 45.7295 5.07979C44.2555 5.07979 43.3701 5.81938 43.2868 6.85063L43.2816 6.91313H44.6722L44.6826 6.86625C44.7555 6.50688 45.0993 6.24125 45.667 6.24125C46.2607 6.24125 46.5837 6.54854 46.5837 7.04333V7.38708L45.2035 7.47042C43.818 7.55896 43.0316 8.15271 43.0316 9.16833V9.17875C43.0316 10.1631 43.7868 10.8663 44.9066 10.8663ZM44.5368 9.10063V9.09021C44.5368 8.69438 44.8441 8.44438 45.4326 8.40792L46.5837 8.335V8.73604C46.5837 9.31938 46.0837 9.75688 45.4014 9.75688C44.8753 9.75688 44.5368 9.51208 44.5368 9.10063ZM49.0889 10.7777H50.6097V7.56938C50.6097 6.84021 51.042 6.34021 51.7243 6.34021C52.4066 6.34021 52.7503 6.75688 52.7503 7.48604V10.7777H54.2712V7.17354C54.2712 5.86625 53.5732 5.07979 52.3441 5.07979C51.5003 5.07979 50.9274 5.47042 50.641 6.11104H50.6097V5.19438H49.0889V10.7777ZM57.3024 10.8923C58.1097 10.8923 58.7243 10.486 59.0212 9.82458H59.0524V10.7777H60.5732V3.26208H59.0524V6.16313H59.0212C58.7191 5.48604 58.0941 5.07979 57.3024 5.07979C55.8962 5.07979 55.0316 6.16313 55.0316 7.98083V7.98604C55.0316 9.79854 55.8962 10.8923 57.3024 10.8923ZM57.8128 9.63188C57.0524 9.63188 56.5785 9.00167 56.5785 7.98604V7.98083C56.5785 6.96 57.0576 6.34021 57.8128 6.34021C58.5472 6.34021 59.0576 6.97563 59.0576 7.98083V7.98604C59.0576 8.99646 58.5524 9.63188 57.8128 9.63188ZM63.2503 10.8663C63.9847 10.8663 64.5785 10.5173 64.8962 9.94438H64.9274V10.7777H66.4482V6.94958C66.4482 5.82458 65.516 5.07979 64.0732 5.07979C62.5993 5.07979 61.7139 5.81938 61.6305 6.85063L61.6253 6.91313H63.016L63.0264 6.86625C63.0993 6.50688 63.443 6.24125 64.0107 6.24125C64.6045 6.24125 64.9274 6.54854 64.9274 7.04333V7.38708L63.5472 7.47042C62.1618 7.55896 61.3753 8.15271 61.3753 9.16833V9.17875C61.3753 10.1631 62.1305 10.8663 63.2503 10.8663ZM62.8805 9.10063V9.09021C62.8805 8.69438 63.1878 8.44438 63.7764 8.40792L64.9274 8.335V8.73604C64.9274 9.31938 64.4274 9.75688 63.7451 9.75688C63.2191 9.75688 62.8805 9.51208 62.8805 9.10063Z" fill="#F7F8F8"/>
</svg>
